<?xml version="1.0" standalone="no"?>
<!DOCTYPE svg PUBLIC "-//W3C//DTD SVG 20010904//EN"
 "http://www.w3.org/TR/2001/REC-SVG-20010904/DTD/svg10.dtd">
<svg version="1.0" xmlns="http://www.w3.org/2000/svg"
 width="512.000000pt" height="512.000000pt" viewBox="0 0 512.000000 512.000000"
 preserveAspectRatio="xMidYMid meet">

<g transform="translate(0.000000,512.000000) scale(0.100000,-0.100000)"
fill="#000000" stroke="none">
<path d="M2759 5098 c-152 -54 -253 -192 -266 -364 -13 -170 71 -324 220 -405
59 -32 67 -34 162 -34 91 0 105 3 158 29 155 79 249 269 220 441 -44 258 -271
411 -494 333z"/>
<path d="M3719 4085 l3 -234 -133 -3 -134 -3 -3 -267 -2 -267 134 6 135 6 4
-664 c3 -428 9 -687 16 -729 22 -126 43 -196 88 -290 96 -199 248 -294 508
-316 150 -12 382 25 515 82 l60 27 0 279 c0 154 -3 278 -7 276 -66 -34 -132
-58 -190 -72 -196 -44 -299 1 -359 159 -17 47 -19 91 -22 649 l-3 599 48 -6
c26 -4 156 -7 288 -8 l240 -1 0 268 0 269 -289 3 -289 2 5 218 c3 119 9 225
13 235 7 16 -12 17 -311 17 l-319 0 4 -235z"/>
<path d="M1046 3870 c-404 -64 -703 -337 -780 -713 -19 -91 -22 -269 -6 -356
46 -257 217 -519 394 -606 60 -29 68 -40 37 -50 -60 -19 -133 -155 -151 -280
-23 -163 22 -310 126 -411 31 -30 55 -57 53 -59 -2 -1 -33 -15 -69 -29 -175
-71 -304 -183 -369 -319 -52 -109 -65 -171 -65 -302 1 -126 18 -206 68 -310
66 -138 166 -232 332 -311 180 -86 358 -119 644 -118 288 0 438 30 622 125
103 53 227 172 280 269 91 164 131 426 93 605 -43 204 -174 338 -421 431 -37
14 -157 50 -268 80 -111 30 -231 69 -267 85 -75 35 -141 96 -158 148 -24 72
-8 169 36 221 36 43 80 63 218 99 386 99 628 353 700 734 25 131 16 329 -20
418 -5 12 1 18 22 23 15 4 65 18 111 32 l82 25 0 288 0 289 -77 -29 c-118 -44
-301 -87 -422 -99 l-108 -11 -69 34 c-133 67 -246 95 -399 102 -60 2 -137 0
-169 -5z m257 -526 c99 -34 191 -150 218 -275 17 -80 6 -252 -20 -321 -26 -68
-85 -131 -149 -161 -39 -17 -66 -21 -157 -21 -136 0 -192 21 -260 97 -67 74
-88 152 -83 305 5 141 27 207 94 281 101 113 216 143 357 95z m109 -2278 c228
-41 328 -177 272 -367 -45 -152 -237 -226 -518 -200 -123 12 -172 24 -236 56
-96 49 -140 122 -140 232 1 194 147 290 445 292 55 0 135 -6 177 -13z"/>
<path d="M2567 3813 c10 -48 10 -2365 0 -2416 l-8 -37 313 0 313 0 0 1245 0
1245 -313 0 -313 0 8 -37z"/>
</g>
</svg>
