<?xml version="1.0" standalone="no"?>
<!DOCTYPE svg PUBLIC "-//W3C//DTD SVG 20010904//EN"
 "http://www.w3.org/TR/2001/REC-SVG-20010904/DTD/svg10.dtd">
<svg version="1.0" xmlns="http://www.w3.org/2000/svg"
 width="225.000000pt" height="225.000000pt" viewBox="0 0 225.000000 225.000000"
 preserveAspectRatio="xMidYMid meet">

<g transform="translate(0.000000,225.000000) scale(0.100000,-0.100000)"
fill="#000000" stroke="none">
<path d="M0 1125 l0 -1125 1125 0 1125 0 0 1125 0 1125 -1125 0 -1125 0 0
-1125z m1048 -192 l-3 -418 -30 -54 c-74 -134 -228 -193 -368 -141 -101 38
-180 133 -193 234 l-7 46 77 0 c62 0 76 -3 76 -15 0 -9 9 -34 20 -55 23 -45
80 -80 130 -80 50 0 107 35 130 80 19 37 20 58 20 430 l0 390 75 0 76 0 -3
-417z m742 393 c88 -46 148 -131 157 -222 l6 -54 -77 0 -76 0 0 28 c0 15 -9
41 -20 59 -32 53 -64 63 -195 63 -139 0 -182 -16 -215 -80 -25 -50 -25 -90 0
-140 32 -63 64 -74 225 -80 131 -5 143 -7 194 -35 179 -98 214 -333 71 -475
-70 -71 -131 -90 -285 -90 -100 0 -135 4 -178 20 -101 38 -180 133 -193 234
l-7 46 77 0 c62 0 76 -3 76 -15 0 -36 41 -95 80 -115 57 -29 233 -29 290 0 45
23 80 80 80 130 0 50 -35 107 -80 130 -33 17 -59 20 -154 20 -91 0 -127 4
-169 20 -70 26 -125 75 -162 141 -27 48 -30 63 -30 139 0 76 3 91 30 139 36
65 92 114 159 141 44 17 71 20 206 17 128 -2 161 -5 190 -21z"/>
</g>
</svg>
