<?xml version="1.0" standalone="no"?>
<!DOCTYPE svg PUBLIC "-//W3C//DTD SVG 20010904//EN"
 "http://www.w3.org/TR/2001/REC-SVG-20010904/DTD/svg10.dtd">
<svg version="1.0" xmlns="http://www.w3.org/2000/svg"
 width="90.000000pt" height="90.000000pt" viewBox="0 0 90.000000 90.000000"
 preserveAspectRatio="xMidYMid meet">

<g transform="translate(0.000000,90.000000) scale(0.100000,-0.100000)"
fill="#FFFFFF" stroke="none">
<path d="M257 750 c-28 -22 -47 -74 -47 -130 0 -30 -6 -38 -41 -58 -45 -26
-79 -74 -79 -112 0 -38 34 -86 79 -112 35 -20 41 -28 41 -57 0 -53 21 -110 48
-132 35 -27 97 -25 149 6 l43 24 42 -24 c53 -31 115 -33 150 -6 27 22 48 79
48 132 0 29 6 37 41 57 45 26 79 74 79 112 0 38 -34 86 -79 112 -35 20 -41 28
-41 57 0 53 -21 110 -48 132 -35 27 -97 25 -149 -6 l-43 -24 -42 24 c-54 31
-115 33 -151 5z m120 -47 l35 -16 -34 -33 c-22 -22 -47 -35 -74 -40 l-41 -6 7
44 c3 24 10 49 14 56 10 17 52 15 93 -5z m239 5 c4 -7 11 -32 14 -56 l7 -44
-41 6 c-27 5 -52 18 -74 40 l-33 33 33 16 c39 20 84 22 94 5z m-151 -68 c3 -5
-3 -10 -15 -10 -12 0 -18 5 -15 10 3 6 10 10 15 10 5 0 12 -4 15 -10z m70 -86
c8 -10 24 -38 37 -61 l23 -43 -23 -42 c-37 -69 -48 -79 -91 -85 -76 -10 -104
2 -139 60 -18 29 -32 59 -32 67 0 22 62 119 79 124 9 3 42 4 74 2 43 -2 61 -7
72 -22z m-235 -1 c0 -5 -5 -15 -10 -23 -8 -12 -10 -11 -10 8 0 12 5 22 10 22
6 0 10 -3 10 -7z m320 -15 c0 -19 -2 -20 -10 -8 -13 19 -13 30 0 30 6 0 10
-10 10 -22z m-382 -48 c10 -32 10 -48 0 -80 -7 -22 -17 -40 -21 -40 -13 0 -77
66 -77 80 0 14 64 80 77 80 4 0 14 -18 21 -40z m488 6 c19 -19 34 -39 34 -46
0 -14 -64 -80 -77 -80 -5 0 -14 18 -20 40 -11 42 2 120 20 120 5 0 24 -15 43
-34z m-426 -148 c0 -5 -4 -8 -10 -8 -5 0 -10 10 -10 23 0 18 2 19 10 7 5 -8
10 -18 10 -22z m316 -5 c-11 -11 -17 4 -9 23 7 18 8 18 11 1 2 -10 1 -21 -2
-24z m-238 -97 l34 -33 -35 -16 c-41 -20 -83 -22 -93 -5 -4 7 -11 32 -14 56
l-7 44 41 -6 c27 -5 52 -18 74 -40z m252 1 c-3 -23 -10 -48 -14 -55 -10 -17
-52 -15 -93 4 l-34 17 32 33 c31 32 49 40 95 43 19 1 20 -3 14 -42z m-168 11
c-9 -9 -15 -9 -24 0 -9 9 -7 12 12 12 19 0 21 -3 12 -12z"/>
<path d="M410 490 c-11 -11 -20 -29 -20 -40 0 -11 9 -29 20 -40 11 -11 29 -20
40 -20 26 0 60 34 60 60 0 11 -9 29 -20 40 -11 11 -29 20 -40 20 -11 0 -29 -9
-40 -20z"/>
</g>
</svg>
