<?xml version="1.0" standalone="no"?>
<!DOCTYPE svg PUBLIC "-//W3C//DTD SVG 20010904//EN"
 "http://www.w3.org/TR/2001/REC-SVG-20010904/DTD/svg10.dtd">
<svg version="1.0" xmlns="http://www.w3.org/2000/svg"
 width="512.000000pt" height="512.000000pt" viewBox="0 0 512.000000 512.000000"
 preserveAspectRatio="xMidYMid meet">

<g transform="translate(0.000000,512.000000) scale(0.100000,-0.100000)"
fill="#000000" stroke="none">
<path d="M539 4347 c-24 -13 -57 -43 -74 -66 l-30 -43 0 -1677 0 -1678 27 -39
c15 -21 44 -50 65 -64 l37 -25 1996 0 1996 0 37 25 c21 14 50 43 65 64 l27 39
0 1677 0 1677 -27 39 c-15 21 -44 50 -65 64 l-37 25 -1986 3 -1987 2 -44 -23z
m803 -851 c80 -54 1088 -867 1097 -885 14 -25 14 -77 0 -102 -13 -25 -1099
-894 -1128 -904 -88 -28 -170 93 -112 166 11 13 233 195 495 404 261 209 475
382 475 385 0 3 -214 176 -475 385 -262 209 -487 393 -500 408 -36 43 -33 90
10 133 42 42 87 45 138 10z m2561 -1706 c38 -30 52 -80 33 -123 -29 -69 -1
-67 -736 -67 -735 0 -707 -2 -736 67 -19 43 -5 93 33 123 25 20 39 20 703 20
664 0 678 0 703 -20z"/>
</g>
</svg>
